<?xml version="1.0" encoding="UTF-8"?>
<svg id="Layer_1" data-name="Layer 1" xmlns="http://www.w3.org/2000/svg" viewBox="0 0 222.16 222.16">
  <defs>
    <style>
      .cls-1 {
        fill: #fff;
        stroke: #fff;
        stroke-miterlimit: 10;
        stroke-width: 3px;
      }
    </style>
  </defs>
  <path class="cls-1" d="M35.39,99.69l-7.67-.05c-1.12-.02-1.16-.01-2.06-.01-.74,0-1.38-.05-2.21.08-.76.12-1.54.43-2.14.78-.6.35-1.19.86-1.56,1.43-.37.57-.84,1.44-.91,2.27-.08.97.16,1.62.7,2.31.6.76,1.38,1.04,2.31,1.43.92.39,1.95.46,2.92.67.97.22,1.76.39,2.36.53,1.41.37,2.7.8,3.87,1.28,1.17.49,2.19,1.11,3.04,1.88s1.52,1.71,1.99,2.82c.47,1.11.7,2.46.7,4.07,0,2.14-.44,3.97-1.33,5.48-.89,1.51-2.03,2.73-3.42,3.67-1.39.94-2.96,1.62-4.7,2.04-1.74.42-3.47.63-5.18.63-5.03,0-8.77-1.02-11.23-3.07-2.46-2.04-3.69-5.26-3.69-9.65h7.49c-.07,1.27.08,2.34.45,3.19.37.85.9,1.53,1.61,2.04s1.54.86,2.51,1.08c.97.22,2.03.33,3.17.33.8,0,1.61-.1,2.41-.3.8-.2,1.53-.5,2.19-.9.65-.4,1.19-.92,1.61-1.56.42-.64.63-1.41.63-2.31s-.27-1.58-.8-2.14c-.54-.55-1.23-1.03-2.09-1.43-.85-.4-1.83-.75-2.92-1.06-1.09-.3-2.19-.62-3.29-.96-1.14-.33-2.25-.74-3.32-1.21-1.07-.47-2.04-1.07-2.89-1.81-.85-.74-1.54-1.64-2.06-2.71-.52-1.07-.78-2.38-.78-3.92,0-2.01.42-3.72,1.26-5.13.84-1.41,1.93-2.56,3.27-3.44,1.34-.89,2.86-1.54,4.55-1.96,1.69-.42,3.41-.63,5.15-.63l10.75-.2"/>
  <path class="cls-1" d="M35.61,99.72l.68-6.45,145.33-.06-1.41,6.63-126.13.06-6.13,29.25h-7.94l6.13-29.25-10.53-.19Z"/>
  <path class="cls-1" d="M94.1,93.27l-1.36,6.63h-19.5l-1.61,7.69h11.87l-1.31,6.13h-11.87l-1.86,8.8h19.8l-1.41,6.63h-27.65l7.49-35.89h27.39Z"/>
  <path class="cls-1" d="M122.3,93.27l-1.46,6.63h-17.59l-1.76,8.29h10.34l-1.31,6.13h-10.29l-3.17,14.83h-7.84l7.54-35.89h25.53Z"/>
  <path class="cls-1" d="M138.33,93.27l5.98,35.89h-7.84l-1.16-7.99h-13.42l-4.52,7.99h-8.29l21.16-35.89h8.09ZM134.61,115.29l-1.76-14.27h-.1l-7.74,14.27h9.6Z"/>
  <path class="cls-1" d="M159.34,93.27l9.75,25.53h.1l5.13-25.53h7.24l-7.59,35.89h-7.89l-9.85-25.18h-.1l-5.13,25.18h-7.34l7.54-35.89h8.14Z"/>
  <path class="cls-1" d="M180.76,105.84c.9-2.61,2.2-4.92,3.9-6.91,1.69-1.99,3.75-3.58,6.18-4.75,2.43-1.17,5.15-1.76,8.17-1.76,2.41,0,4.61.33,6.58.98,1.98.65,3.65,1.63,5.03,2.94,1.37,1.31,2.44,2.91,3.19,4.83s1.13,4.12,1.13,6.64c0,2.95-.44,5.76-1.31,8.44-.87,2.68-2.14,5.04-3.8,7.09s-3.7,3.66-6.13,4.85c-2.43,1.19-5.22,1.78-8.37,1.78-5.09,0-9.02-1.36-11.79-4.07-2.76-2.71-4.15-6.64-4.15-11.76,0-2.92.45-5.68,1.36-8.29ZM187.77,117.65c.32,1.11.8,2.09,1.46,2.94.65.86,1.49,1.53,2.51,2.04,1.02.5,2.25.75,3.69.75,1.94,0,3.64-.46,5.08-1.38,1.44-.92,2.65-2.11,3.62-3.57.97-1.46,1.7-3.07,2.19-4.85.49-1.78.73-3.52.73-5.23,0-1.27-.14-2.47-.43-3.59-.29-1.12-.75-2.1-1.38-2.94-.64-.84-1.46-1.51-2.46-2.01s-2.25-.75-3.72-.75c-2.01,0-3.76.46-5.25,1.38-1.49.92-2.71,2.11-3.67,3.57-.96,1.46-1.67,3.08-2.14,4.88-.47,1.79-.7,3.54-.7,5.25,0,1.24.16,2.41.48,3.52Z"/>
</svg>