<?xml version="1.0" encoding="UTF-8"?>
<svg id="Layer_1" data-name="Layer 1" xmlns="http://www.w3.org/2000/svg" viewBox="0 0 101.93 356.71">
  <defs>
    <style>
      .cls-1 {
        fill: #c6dacd;
      }

      .cls-2 {
        fill: #f5f9f6;
      }

      .cls-3 {
        fill: #a4b9ad;
      }

      .cls-4 {
        fill: #c4dacd;
      }

      .cls-5 {
        fill: #e4ded4;
      }

      .cls-6 {
        fill: #c3d7dd;
      }
    </style>
  </defs>
  <g id="Pah6jU">
    <g>
      <path class="cls-6" d="M101.93,358.3l-8.26-.22c.05-.54.18-.88.36-1.33,3.1-7.82,5.7-17.48,7.6-29.14.1-.59.18-.95.31-1.12v31.8Z"/>
      <path class="cls-2" d="M56.81,0c-.02.2-.1.64-.18.61-1.61-.53-3.23-.01-4.84-.01l-10.66.03H5.02S0,.48,0,.48v-.48h56.81Z"/>
      <path class="cls-2" d="M72.57,0c-.04.19-.08.37-.12.53l-10.25.09c-.09-.1-.17-.33-.23-.62h10.6Z"/>
      <path class="cls-2" d="M92.69,0h9.24v.48l-8.85.12c-.15,0-.33-.04-.39-.6Z"/>
      <path class="cls-2" d="M89.97,0l-.02.58-6.24-.04c-.05-.17-.09-.35-.13-.54h6.39Z"/>
      <path class="cls-2" d="M77.87,0c-.04.19-.08.36-.12.53h-1.38c-.04-.18-.08-.35-.12-.53h1.63Z"/>
      <g>
        <path class="cls-3" d="M41.13.63c0,.44.06.81.19,1.26,9.15,31.49,13.06,69.7,19.65,107.06,5.19,29.41,11.77,52.57,21.47,61.96,6.67,6.46,13.45,3.25,19.47-7.85v11.24l-6,1.78c-8.6,2.56-21.52.54-29.46-12.55-3.46-5.71-6.48-13.97-9-24.12-2.77-11.17-4.95-23.38-6.88-36.51-2.97-20.15-5.01-41.15-8.36-60.27-2.87-16.43-6.66-31.12-12.22-35.72s-12.23,1.82-17.17,12.91c-1.78,4-3.33,8.82-4.64,14.61-2.44,10.78-3.63,27.46-1.01,38.63,1.1,4.68,2.79,6.84,4.51,6.19,6.46-2.48,10.97-33.85,18.63-40.39,5.07-4.33,8.85,5.43,11.4,19.91,1.59,9.05,2.81,18.35,3.82,28.41l4,39.92c1.26,12.6,2.8,24.33,4.83,35.6,2.9,16.1,6.81,27.45,12.11,32.38,7.56,7.03,15.84,3.26,23.44-2.01,4.1-2.85,8.07-6.11,12.01-10.29v15.91c-.27.21-.49.72-.79,1.35-4.73,9.88-9.91,15.87-15.42,17.86-5.2,1.87-10.33.8-15.42-3.26-11.5-9.16-19.68-35.62-23-75.34-1.78-21.28-2.06-39.85-4.01-60.28-1.11-11.69-2.91-24.04-5.98-30.54-4.1-8.68-8.12,2.75-10.14,14.9l-2.95,17.74c-2.61,15.7-5.62,30.35-10.68,36.54-3.96,4.86-8.19,1.64-11.25-8.36-.72-2.36-1.32-4.9-1.89-7.74-.11-.56-.25-.88-.41-.89V23.85c.1.02.26-.19.34-.73C1.53,14.49,3.25,7.55,5.02.64h36.11Z"/>
        <path class="cls-6" d="M101.93,174.29v8.49c-3.94,4.18-7.9,7.44-12.01,10.29-7.6,5.27-15.88,9.04-23.44,2.01-5.3-4.93-9.21-16.29-12.11-32.38-2.03-11.28-3.57-23.01-4.83-35.6l-4-39.92c-1.01-10.06-2.23-19.36-3.82-28.41-2.54-14.48-6.33-24.23-11.4-19.91-7.66,6.54-12.18,37.91-18.63,40.39-1.72.66-3.41-1.51-4.51-6.19-2.63-11.17-1.43-27.86,1.01-38.63,1.31-5.79,2.86-10.61,4.64-14.61C17.78,8.73,24.18,2.08,30,6.9s9.35,19.29,12.22,35.72c3.34,19.12,5.39,40.12,8.36,60.27,1.93,13.13,4.11,25.33,6.88,36.51,2.52,10.15,5.54,18.41,9,24.12,7.95,13.09,20.86,15.11,29.46,12.55l6-1.78Z"/>
        <path class="cls-5" d="M101.93,198.69v5.45c-3.12,1.79-6.08,6.46-9.07,10.62-4.26,5.93-8.48,10.74-12.92,14.88-2.88,2.68-5.74,3.81-8.66,1.64-3.52-2.62-5.53-9.95-8.87-14.38-.97-1.28-2.15-.75-2.64,3.02-.34,2.64-.47,6.04-.34,9.16.48,11.88,1.25,23.31,2.07,34.91.51,7.22,1.24,13.6,2.51,19.38,1.39,6.36,3.7,8.07,5.66,3.59.49-1.12,1.07-2.2,1.52-3.69,1.69-5.54,3.08-11.78,4.42-18.39,1.14-5.6,2.46-10.33,3.68-15.64.35-1.5.75-2.36,1.13-3.7,3.5-12.59,7.41-21.68,12.54-23.23,3.24-.98,6.22,1.42,8.98,6.7v16.24c-1.04-3.79-1.98-7.84-3.3-10.87-3.04-6.98-6.71-8.35-10.1-3.78-8.56,11.56-10.77,45.52-14.98,61.85-2.09,8.1-4.96,12.98-7.95,7.8-5.42-9.4-7.36-39.14-8.38-58.33-.58-10.95-1.12-21.36-1.99-32.06-1.61-19.79-4.51-37.66-8.88-51.5-6.6-20.92-15.18-28.5-23.93-29.29-4.56-.41-8.9,1.84-13.21,5.96-.15,0-.1-.35.03-.64,4.85-6.5,9.68-12.47,14.73-16.71,2.52-2.11,4.99-2.62,7.49-.83,4.82,3.44,8.73,19.54,11.1,13.84,1.13-2.72.87-11.82.66-16.16-.33-6.86-.72-13.38-1.17-20.17-.73-11.14-1.66-27.74-4.66-33.83-2.35-4.78-4.73.89-6.38,6.71-.65,2.3-1.39,5.02-1.96,7.58l-3.37,15.3-1.75,7.12c-1.91,7.79-4.89,16.73-7.46,21.65-4.84,9.25-10.87,10.07-15.64-.05-.29-.63-.52-1.44-.83-1.48v-16.7c.16,0,.29.32.41.89.57,2.84,1.16,5.38,1.89,7.74,3.06,9.99,7.28,13.21,11.25,8.36,5.06-6.19,8.06-20.84,10.68-36.54l2.95-17.74c2.02-12.15,6.04-23.58,10.14-14.9,3.07,6.51,4.87,18.85,5.98,30.54,1.94,20.43,2.22,39,4.01,60.28,3.33,39.72,11.51,66.18,23,75.34,5.09,4.06,10.23,5.13,15.42,3.26,5.51-1.99,10.69-7.98,15.42-17.86.3-.62.52-1.14.79-1.35Z"/>
        <path class="cls-3" d="M72.45.53c.78,19.61-.19,37.6.76,57.41.58,12.04,2.32,22.3,5.07,29.94,3.45,9.6,7.39,16.73,11.57,21.77,1.4,1.69,4.53,3.82,5.28-1.37.27-1.87-.03-4.3-.37-5.92-2.39-11.61-8.52-17.09-12.59-28.7-2.17-6.19-3.68-15.78-1.84-25.04,1.59-8.01,4.9-11.13,7.56-12.02l4.68-1.56c1.44-.48,2.81-1.6,4.04-4.08,1.16-2.35,1.69-6.51,1.24-11.07-.81-8.14-3.79-12.45-4.79-19.29l8.85-.12v39.38l-4.9.85c-2.21.38-4.35,1.25-6.46,3.33-1.4,1.38-2.65,3.65-3.57,7.46-1.2,5-1.23,11.57-.22,17.06.89,4.82,2.22,8.15,3.66,10.97,3.26,6.36,7.89,8.56,11.49,10v32.6c-4.67,1.92-9.57.12-14.25-3.3-6.57-4.8-12.32-13.56-16.26-33.26-3.32-16.58-5.1-35.6-6.72-55.03L62.2.62l10.25-.09Z"/>
        <path class="cls-4" d="M51.79.6c2.75,48.17,6.25,83.28,17.04,116.54,3.77,11.63,7.98,20.12,12.69,26.06s9.86,8.8,15,7.28c1.88-.56,3.66-1.38,5.41-3.19v15.77c-6.03,11.1-12.8,14.31-19.47,7.85-9.71-9.39-16.28-32.55-21.47-61.96-6.59-37.36-10.51-75.57-19.65-107.06-.13-.46-.19-.83-.19-1.26l10.66-.03Z"/>
        <path class="cls-3" d="M56.63.61l3.34,34.14c.91,9.28,1.9,17.95,3.09,26.77,3.32,24.7,7.73,43.73,14.61,56.96,7.44,14.3,15.97,18.6,24.25,13.64v15.15c-1.75,1.82-3.52,2.64-5.41,3.19-5.15,1.53-10.15-1.16-15-7.28s-8.92-14.43-12.69-26.06C58.05,83.89,54.54,48.78,51.79.6c1.61,0,3.23-.52,4.84.01Z"/>
        <path class="cls-5" d="M76.24,0c.04.18.08.36.12.52.3,12.44-.65,24.05-.72,36.67-.02,3.54.11,7.03.57,10s1.27,3.5,2.03,1.85c2.38-5.19,3.27-20.59,7.67-24.18l3.49-2.85c.87-.71,1.66-2.29,2.11-5.05.85-5.18-1.05-12.46-1.56-16.37l.02-.58h2.72c.06.56.24.6.39.6,1,6.84,3.98,11.15,4.79,19.29.45,4.56-.08,8.72-1.24,11.07-1.23,2.48-2.61,3.6-4.04,4.08l-4.68,1.56c-2.67.89-5.97,4.01-7.56,12.02-1.84,9.26-.33,18.85,1.84,25.04,4.07,11.61,10.2,17.1,12.59,28.7.34,1.63.64,4.05.37,5.92-.76,5.19-3.88,3.06-5.28,1.37-4.18-5.04-8.12-12.17-11.57-21.77-2.75-7.64-4.49-17.9-5.07-29.94-.95-19.81.02-37.8-.76-57.41.05-.17.09-.34.12-.53h3.67Z"/>
        <path class="cls-1" d="M9.21,135.03c-1.27,1.22-2.45,4.13-3.77,4.96-.21.14-.37.12-.64.49-.87,1.18-3.86,3.83-4.79,4.09v-8.59c.31.23.61-.09.97-.34l8.91-7.57c-3.36,1.4-6.61,2.68-9.88,1.23v-11.93c.31.04.53.86.83,1.48,4.77,10.13,10.79,9.3,15.64.05,2.58-4.92,5.55-13.86,7.46-21.65l1.75-7.12,3.37-15.3c.56-2.56,1.31-5.28,1.96-7.58,1.64-5.82,4.02-11.49,6.38-6.71,3,6.08,3.93,22.68,4.66,33.83.45,6.79.83,13.31,1.17,20.17.21,4.33.47,13.44-.66,16.16-2.36,5.69-6.27-10.4-11.1-13.84-2.51-1.79-4.98-1.28-7.49.83-5.05,4.24-9.88,10.21-14.73,16.71-.13.29-.18.65-.03.64ZM31.33,109.37c2.09-.2,5.73.48,6.35-7.36.25-3.17.18-7.02-.27-9.98s-.9-5.75-1.78-7.14c-2.49-3.94-5.34,3.19-7.24,8.56s-3.61,10.46-5.59,15.11l-4.66,9.62c5.46-6.2,7.2-8.23,13.19-8.8Z"/>
        <path class="cls-5" d="M61.97,0c.05.29.13.52.23.62l2.5,29.92c1.62,19.44,3.41,38.45,6.72,55.03,3.94,19.7,9.68,28.45,16.26,33.26,4.68,3.42,9.58,5.22,14.25,3.3v10c-8.29,4.96-16.81.66-24.25-13.64-6.89-13.23-11.29-32.27-14.61-56.96-1.19-8.82-2.18-17.49-3.09-26.77L56.63.61c.07.02.15-.42.18-.61h5.16Z"/>
        <path class="cls-6" d="M101.93,39.86v7.99c-2.72-.55-5.45.11-8.09,3.28-1.01,1.21-1.94,3.02-2.37,6.6-.88,7.4,2.36,14.23,3.99,16.47,2.11,2.9,4.28,4.34,6.47,5.09v10.26c-3.6-1.44-8.23-3.64-11.49-10-1.44-2.82-2.77-6.15-3.66-10.97-1.01-5.49-.98-12.06.22-17.06.92-3.81,2.17-6.08,3.57-7.46,2.11-2.09,4.26-2.95,6.46-3.33l4.9-.85Z"/>
        <path class="cls-3" d="M101.93,47.84v7.02c-1.14,1.04-3.89,4.19-3.85,9.29.04,4.54,2.86,6.62,3.85,7.03v8.09c-2.19-.74-4.36-2.18-6.47-5.09-1.62-2.24-4.87-9.07-3.99-16.47.43-3.58,1.36-5.39,2.37-6.6,2.64-3.16,5.37-3.82,8.09-3.28Z"/>
        <path class="cls-5" d="M83.58,0c.04.19.08.37.13.54-.08,4.19-.2,8.47-.85,12.32-.91,5.39-2.13,9.91-3.52,13.78-.2.55-.48.77-.67.54-1.38-1.59-.92-22.34-.91-26.64.04-.17.09-.35.12-.53h5.71Z"/>
        <path class="cls-6" d="M5.02.64C3.25,7.55,1.53,14.49.34,23.12c-.07.54-.24.75-.34.73V.48l5.02.16Z"/>
        <path class="cls-6" d="M101.93,54.87v16.32c-.98-.41-3.81-2.48-3.85-7.03-.05-5.1,2.71-8.25,3.85-9.29Z"/>
        <path class="cls-5" d="M0,135.97v-6.68c3.27,1.44,6.52.17,9.88-1.23l-8.91,7.57c-.36.25-.67.57-.97.34Z"/>
        <path class="cls-5" d="M5.44,139.99c-1.85,3.19-3.64,6.73-5.44,10.3v-5.73c.93-.26,3.93-2.9,4.79-4.09.27-.37.43-.35.64-.49Z"/>
        <path class="cls-3" d="M77.75.53c0,4.3-.47,25.05.91,26.64.2.23.48,0,.67-.54,1.39-3.87,2.61-8.39,3.52-13.78.65-3.84.77-8.13.85-12.32l6.24.04c.52,3.91,2.41,11.2,1.56,16.37-.45,2.76-1.24,4.34-2.11,5.05l-3.49,2.85c-4.4,3.59-5.28,18.99-7.67,24.18-.76,1.66-1.6.98-2.03-1.85s-.59-6.46-.57-10c.07-12.62,1.02-24.23.72-36.67h1.38Z"/>
        <path class="cls-5" d="M31.33,109.37c-5.99.57-7.73,2.6-13.19,8.8l4.66-9.62c1.98-4.65,3.73-9.86,5.59-15.11s4.75-12.49,7.24-8.56c.88,1.39,1.35,4.28,1.78,7.14s.52,6.82.27,9.98c-.62,7.84-4.27,7.16-6.35,7.36Z"/>
      </g>
      <g>
        <path class="cls-3" d="M101.93,245.24v81.25c-.12.17-.21.53-.31,1.12-1.89,11.66-4.49,21.32-7.6,29.14-.18.45-.31.79-.36,1.33l-28.47.03c-1.69-4.7-3.37-9.25-4.91-14.89-8.52-31.15-12.16-65.48-18.38-101.55-5.37-31.16-12.11-55.83-22.44-65.2-6.74-6.11-13.46-2.2-19.47,9.12v-11.93l6.68-1.96c7.08-2.08,14.1-.93,21.08,3.63,3.1,2.03,5.95,5.1,8.77,9.96,2.05,3.53,3.84,8.03,5.58,13.2,4.25,12.6,8.4,35.81,10.72,53.6l4.4,33.69c.92,7.09,1.93,13.53,3.08,20.15,3.06,17.5,7.33,32.92,13.4,35.88s12.32-4.43,17.09-16.81c2.11-5.46,3.84-12.12,4.94-20.36,1.03-7.67,1.3-16.25.47-23.92-1.03-9.47-3.63-14.02-6.39-11.63-6.17,5.33-10.43,33.75-17.81,39.96-3.13,2.63-6.2-.3-8.56-7.96-1.5-4.88-2.61-10.59-3.59-16.92-1.37-8.85-2.45-17.75-3.4-27.33l-3.43-34.6c-1.04-10.53-2.28-20.33-3.8-30.05-2.97-19.04-7.02-33.49-13.14-39.3-7.28-6.91-15.41-3.74-22.75,1.26-4.56,3.11-8.97,6.72-13.33,11.4v-15.27c1.8-3.57,3.59-7.1,5.44-10.3,1.31-.83,2.5-3.74,3.77-4.96,4.31-4.12,8.66-6.37,13.21-5.96,8.76.78,17.33,8.37,23.93,29.29,4.37,13.85,7.27,31.71,8.88,51.5.87,10.7,1.41,21.11,1.99,32.06,1.02,19.19,2.96,48.93,8.38,58.33,2.99,5.18,5.87.3,7.95-7.8,4.21-16.33,6.42-50.3,14.98-61.85,3.39-4.57,7.06-3.2,10.1,3.78,1.32,3.03,2.26,7.07,3.3,10.87Z"/>
        <path class="cls-6" d="M0,173.66v-8.11c4.37-4.67,8.77-8.29,13.33-11.4,7.34-5,15.48-8.18,22.75-1.26,6.12,5.82,10.17,20.26,13.14,39.3,1.52,9.72,2.75,19.52,3.8,30.05l3.43,34.6c.95,9.57,2.03,18.48,3.4,27.33.98,6.33,2.09,12.03,3.59,16.92,2.35,7.67,5.43,10.6,8.56,7.96,7.38-6.21,11.64-34.64,17.81-39.96,2.76-2.38,5.37,2.16,6.39,11.63.83,7.66.56,16.25-.47,23.92-1.1,8.25-2.84,14.9-4.94,20.36-4.78,12.38-11.09,19.74-17.09,16.81s-10.33-18.38-13.4-35.88c-1.16-6.61-2.16-13.06-3.08-20.15l-4.4-33.69c-2.32-17.79-6.47-41-10.72-53.6-1.75-5.18-3.53-9.67-5.58-13.2-2.83-4.86-5.67-7.93-8.77-9.96-6.98-4.57-14-5.72-21.08-3.63l-6.68,1.96Z"/>
        <path class="cls-3" d="M40.65,358.17l-10.63-.04c-.58-7.66-.95-15.47-.96-23.69l-.02-22.9c-.02-22.91-.73-39.61-6.25-53.83-3.59-9.25-7.57-16.35-11.84-20.79-1.2-1.25-2.38-1.3-3.49.04-.76.92-1.09,3.23-.79,5.91,1.6,13.87,10.93,20.97,14.28,35.74.75,3.31,1.34,7.13,1.33,11.48-.01,5.96-1,10.88-2.36,14.15-4.4,10.64-10.74,4.69-14.69,12.27-1.22,2.34-1.76,6.72-1.28,11.4,1.11,10.66,6.85,17.03,5.18,30.19l-9.13.21v-50.57l4.76-.81c2.26-.39,4.47-1.3,6.63-3.53,1.18-1.22,2.21-3.08,3.06-5.95,1.32-4.44,1.68-10.66.87-16.47-.57-4.14-1.5-7.14-2.58-9.85-3.56-8.98-8.56-11.27-12.75-13v-32.92c.93.27,1.84-.54,2.87-.54,5.13,0,10.17,2.41,15.07,7.58,4.49,4.73,8.48,12.46,11.45,25.29,3.96,17.08,5.88,38.48,7.68,59.33l3.57,41.32Z"/>
        <path class="cls-4" d="M65.2,358.11l-14.5.03-2.51-38.76c-.85-13.21-2.23-25.24-3.87-37.44-1.74-12.86-3.95-24.27-6.64-34.96-6.14-24.32-12.96-39.96-22.09-47.35-4.81-3.9-9.74-3.73-14.54-.47-.41.28-.69,1.1-1.05.74v-14.31c6.01-11.31,12.72-15.23,19.47-9.12,10.33,9.37,17.07,34.04,22.44,65.2,6.22,36.07,9.86,70.4,18.38,101.55,1.54,5.64,3.23,10.19,4.91,14.89Z"/>
        <path class="cls-3" d="M50.7,358.14l-4.23-.02-1.59-14.32-3.15-31.83c-1.1-11.18-2.35-21.62-3.89-32.13-2.1-14.35-4.81-27.1-8.29-37.63-1.71-5.15-3.45-9.2-5.43-13.02-7.07-13.68-15.2-18.39-23.19-14.24-.38.2-.64.45-.94.22v-15.27c.35.36.64-.46,1.05-.74,4.8-3.27,9.73-3.43,14.54.47,9.13,7.39,15.95,23.03,22.09,47.35,2.7,10.69,4.91,22.09,6.64,34.96,1.65,12.2,3.02,24.23,3.87,37.44l2.51,38.76Z"/>
        <path class="cls-5" d="M46.47,358.12l-5.83.05-3.57-41.32c-1.8-20.85-3.72-42.25-7.68-59.33-2.98-12.83-6.97-20.56-11.45-25.29-4.91-5.17-9.94-7.59-15.07-7.58-1.04,0-1.94.81-2.87.54v-10.02c.3.23.56-.02.94-.22,7.99-4.15,16.12.56,23.19,14.24,1.97,3.82,3.72,7.86,5.43,13.02,3.49,10.52,6.19,23.28,8.29,37.63,1.54,10.5,2.78,20.95,3.89,32.13l3.15,31.83,1.59,14.32Z"/>
        <path class="cls-1" d="M101.93,204.14v8.62l-4.19,3.04c-.6.44-1.14,1.6-1.8,1.26-1,1.56-2.02,1.52-3.07,3.15l3.84-1.56c1.76-.72,3.5-.5,5.22-.11v10.47c-2.76-5.28-5.74-7.68-8.98-6.7-5.13,1.56-9.03,10.65-12.54,23.23-.37,1.34-.78,2.2-1.13,3.7-1.22,5.32-2.54,10.05-3.68,15.64-1.35,6.61-2.73,12.84-4.42,18.39-.45,1.48-1.03,2.57-1.52,3.69-1.97,4.48-4.28,2.77-5.66-3.59-1.26-5.78-2-12.16-2.51-19.38-.81-11.6-1.58-23.03-2.07-34.91-.13-3.12,0-6.51.34-9.16.49-3.77,1.67-4.3,2.64-3.02,3.34,4.43,5.36,11.76,8.87,14.38,2.91,2.17,5.78,1.04,8.66-1.64,4.44-4.14,8.66-8.95,12.92-14.88,2.99-4.16,5.95-8.83,9.07-10.62ZM65.86,259.04c.8,4.5,2.24,6.25,3.73,5.14s2.88-4.04,4.11-7.44l2.21-6.07c2.71-7.45,5.42-14.19,8.46-20.01l-4.59,4.66c-1.68,1.71-3.33,2.72-5.09,2.99l-5.91.93c-.65.1-1.29.79-1.89,1.26-1.01.8-1.6,3.23-1.85,6.61-.3,4.21.13,8.04.82,11.94Z"/>
        <path class="cls-6" d="M0,307.73v-8.11c2.79.98,5.63-.22,8.34-3.6.82-1.03,1.54-2.96,1.93-5.65,1.11-7.58-2.41-15.04-4.21-17.3-1.99-2.5-4.02-4.24-6.06-4.46v-10.5c4.18,1.73,9.19,4.03,12.75,13,1.07,2.71,2,5.71,2.58,9.85.81,5.8.44,12.02-.87,16.47-.85,2.88-1.88,4.73-3.06,5.95-2.15,2.23-4.36,3.14-6.63,3.53l-4.76.81Z"/>
        <path class="cls-3" d="M0,299.62v-7.16c1.05-.6,3.72-4.2,3.72-8.84s-2.75-6.94-3.72-6.9v-8.11c2.04.21,4.08,1.95,6.06,4.46,1.79,2.26,5.31,9.72,4.21,17.3-.39,2.69-1.11,4.62-1.93,5.65-2.71,3.39-5.55,4.58-8.34,3.6Z"/>
        <path class="cls-6" d="M0,292.46v-15.74c.96-.03,3.71,2.39,3.72,6.9s-2.67,8.24-3.72,8.84Z"/>
        <path class="cls-5" d="M101.93,212.76v5.77c-1.72-.39-3.46-.61-5.22.11l-3.84,1.56c1.05-1.63,2.08-1.6,3.07-3.15.66.34,1.2-.82,1.8-1.26l4.19-3.04Z"/>
        <path class="cls-5" d="M30.02,358.14l-4.03.04c-1.23-18.88-.19-27.59.16-46.14.07-3.83-.05-7.57-.45-10.97-.33-2.83-1.13-4.24-1.91-2.89-.65,1.14-1.17,2.83-1.6,4.88l-2.01,9.61c-2.7,12.93-6.78,9.91-9.08,14.93-3.21,7.01,2.2,22.57,2.74,30.49h-4.71c1.68-13.16-4.06-19.53-5.18-30.19-.49-4.68.06-9.06,1.28-11.4,3.95-7.58,10.29-1.63,14.69-12.27,1.36-3.27,2.35-8.19,2.36-14.15,0-4.35-.58-8.17-1.33-11.48-3.35-14.77-12.67-21.86-14.28-35.74-.31-2.68.02-4.99.79-5.91,1.11-1.34,2.29-1.29,3.49-.04,4.27,4.44,8.25,11.54,11.84,20.79,5.52,14.22,6.24,30.92,6.25,53.83l.02,22.9c0,8.22.38,16.03.96,23.69Z"/>
        <path class="cls-5" d="M65.86,259.04c-.69-3.9-1.12-7.73-.82-11.94.24-3.38.84-5.82,1.85-6.61.6-.47,1.24-1.16,1.89-1.26l5.91-.93c1.76-.28,3.41-1.28,5.09-2.99l4.59-4.66c-3.04,5.82-5.75,12.56-8.46,20.01l-2.21,6.07c-1.24,3.4-2.6,6.32-4.11,7.44s-2.93-.64-3.73-5.14Z"/>
        <path class="cls-3" d="M25.98,358.17c-.65,0-1.41,0-2.07,0l.19-18.5c.06-5.29.06-10.21-.29-15.39-.08-1.21-.36-4.31-.81-3.92-1.29,1.14-3.05,8.98-3.81,12.86-1.38,7.01-1.18,17.09-.99,24.93l-4.36-.07c-.54-7.92-5.95-23.49-2.74-30.49,2.3-5.02,6.37-2,9.08-14.93l2.01-9.61c.43-2.06.95-3.74,1.6-4.88.78-1.36,1.58.06,1.91,2.89.4,3.4.52,7.15.45,10.97-.34,18.54-1.39,27.26-.16,46.14Z"/>
        <path class="cls-5" d="M23.92,358.18l-5.72-.02c-.19-7.84-.39-17.93.99-24.93.76-3.87,2.52-11.72,3.81-12.86.45-.39.73,2.72.81,3.92.35,5.18.35,10.1.29,15.39l-.19,18.5Z"/>
      </g>
    </g>
  </g>
</svg>